HIERARCHY
ROOT Hips
{
	OFFSET 0.00000 0.00000 0.00000
	CHANNELS 6 Xposition Yposition Zposition Zrotation Yrotation Xrotation 
	JOINT LHipJoint
	{
		OFFSET 0 0 0
		CHANNELS 3 Zrotation Yrotation Xrotation
		JOINT LeftUpLeg
		{
			OFFSET 1.75344 -1.53157 0.77399
			CHANNELS 3 Zrotation Yrotation Xrotation
			JOINT LeftLeg
			{
				OFFSET 2.25415 -6.19323 0.00000
				CHANNELS 3 Zrotation Yrotation Xrotation
				JOINT LeftFoot
				{
					OFFSET 2.30342 -6.32861 0.00000
					CHANNELS 3 Zrotation Yrotation Xrotation
					JOINT LeftToeBase
					{
						OFFSET 0.10958 -0.30108 1.49206
						CHANNELS 3 Zrotation Yrotation Xrotation
						End Site
						{
							OFFSET 0.00000 -0.00000 0.77783
						}
					}
				}
			}
		}
	}
	JOINT RHipJoint
	{
		OFFSET 0 0 0
		CHANNELS 3 Zrotation Yrotation Xrotation
		JOINT RightUpLeg
		{
			OFFSET -1.81912 -1.53156 0.77399
			CHANNELS 3 Zrotation Yrotation Xrotation
			JOINT RightLeg
			{
				OFFSET -2.22882 -6.12365 0.00000
				CHANNELS 3 Zrotation Yrotation Xrotation
				JOINT RightFoot
				{
					OFFSET -2.21943 -6.09785 0.00000
					CHANNELS 3 Zrotation Yrotation Xrotation
					JOINT RightToeBase
					{
						OFFSET -0.18931 -0.52012 1.59379
						CHANNELS 3 Zrotation Yrotation Xrotation
						End Site
						{
							OFFSET -0.00000 -0.00000 0.84686
						}
					}
				}
			}
		}
	}
	JOINT LowerBack
	{
		OFFSET 0 0 0
		CHANNELS 3 Zrotation Yrotation Xrotation
		JOINT Spine
		{
			OFFSET -0.00200 1.66634 -0.14248
			CHANNELS 3 Zrotation Yrotation Xrotation
			JOINT Spine1
			{
				OFFSET -0.00875 1.64542 0.09514
				CHANNELS 3 Zrotation Yrotation Xrotation
				JOINT Neck
				{
					OFFSET 0 0 0
					CHANNELS 3 Zrotation Yrotation Xrotation
					JOINT Neck1
					{
						OFFSET 0.02257 1.59605 0.00839
						CHANNELS 3 Zrotation Yrotation Xrotation
						JOINT Head
						{
							OFFSET -0.10214 1.57530 -0.23335
							CHANNELS 3 Zrotation Yrotation Xrotation
							End Site
							{
								OFFSET -0.03588 1.60717 -0.08062
							}
						}
					}
				}
				JOINT LeftShoulder
				{
					OFFSET 0 0 0
					CHANNELS 3 Zrotation Yrotation Xrotation
					JOINT LeftArm
					{
						OFFSET 2.54983 1.10186 0.40078
						CHANNELS 3 Zrotation Yrotation Xrotation
						JOINT LeftForeArm
						{
							OFFSET 4.28840 -0.00000 0.00000
							CHANNELS 3 Zrotation Yrotation Xrotation
							JOINT LeftHand
							{
								OFFSET 3.06552 -0.00000 -0.00000
								CHANNELS 3 Zrotation Yrotation Xrotation
								JOINT LeftFingerBase
								{
									OFFSET 0 0 0
									CHANNELS 3 Zrotation Yrotation Xrotation
									JOINT LeftHandIndex1
									{
										OFFSET 0.75304 -0.00000 0.00000
										CHANNELS 3 Zrotation Yrotation Xrotation
										End Site
										{
											OFFSET 0.60712 -0.00000 0.00000
										}
									}
								}
								JOINT LThumb
								{
									OFFSET 0 0 0
									CHANNELS 3 Zrotation Yrotation Xrotation
									End Site
									{
										OFFSET 0.61639 -0.00000 0.61639
									}
								}
							}
						}
					}
				}
				JOINT RightShoulder
				{
					OFFSET 0 0 0
					CHANNELS 3 Zrotation Yrotation Xrotation
					JOINT RightArm
					{
						OFFSET -2.60909 1.35448 0.21802
						CHANNELS 3 Zrotation Yrotation Xrotation
						JOINT RightForeArm
						{
							OFFSET -4.52172 -0.00000 -0.00000
							CHANNELS 3 Zrotation Yrotation Xrotation
							JOINT RightHand
							{
								OFFSET -2.89140 -0.00000 0.00000
								CHANNELS 3 Zrotation Yrotation Xrotation
								JOINT RightFingerBase
								{
									OFFSET 0 0 0
									CHANNELS 3 Zrotation Yrotation Xrotation
									JOINT RightHandIndex1
									{
										OFFSET -0.68054 -0.00000 0.00000
										CHANNELS 3 Zrotation Yrotation Xrotation
										End Site
										{
											OFFSET -0.54867 -0.00000 0.00000
										}
									}
								}
								JOINT RThumb
								{
									OFFSET 0 0 0
									CHANNELS 3 Zrotation Yrotation Xrotation
									End Site
									{
										OFFSET -0.55705 -0.00000 0.55705
									}
								}
							}
						}
					}
				}
			}
		}
	}
}
MOTION
Frames: 14
Frame Time: 0.142857
0.00 0.00 0.00 0 0 0 0 0 0 -21 0 0 0 0 0 0 0 0 0 0 0 0 0 0 21 0 0 0 0 0 0 0 0 0 0 0 0 0 0 0 0 0 0 0 0 0 0 -16 0 0 21 0 0 11 0 0 0 -8 0 0 0 0 0 0 0 0 0 0 0 0 0 0 0 0 0 0 0 0 8 0 0 0 0 0 0 0 0 0 0 0 0 0 0 0 0 0
0.00 0.00 0.00 -178.8970 0.5853 193.6790 0.0000 0.0000 0.0000 -14.2853 -18.0255 -28.4118 3.8720 11.9881 35.6897 1.5917 4.3108 -25.7149 8.3432 -16.3660 -53.7896 0.0000 0.0000 0.0000 24.3877 2.4371 -30.6012 -3.6504 -11.6801 34.6094 -0.5712 -19.1472 -31.1746 -0.1892 -2.8014 7.7264 1.1355 3.6614 17.8405 -1.6444 4.9642 -2.6389 -3.8805 2.1563 -12.7395 -10.7366 -5.8163 -7.0109 12.3544 -7.3007 -9.1265 5.3450 -3.8178 -0.6702 0.0000 -0.0000 0.0000 -57.1261 30.2778 -22.7666 20.7188 -31.4987 -5.9024 -0.0000 0.0000 -3.7706 6.7689 -20.7598 -2.4091 -7.1250 0.0000 -0.0000 -13.8610 9.5605 11.7240 0.0000 -0.0000 0.0000 51.4447 10.3003 35.3371 -29.6250 40.5698 -11.1649 0.0000 0.0000 8.9264 4.2118 -54.4460 -3.4287 7.1250 -0.0000 -0.0000 78.7640 -70.2629 -57.5308
0.00 0.00 0.00 -178.6640 3.9862 201.1080 0.0000 0.0000 0.0000 -11.0963 -13.2171 -48.1483 7.9644 16.0930 52.4342 2.5951 1.0983 -30.9048 8.3691 -16.3842 -53.8817 0.0000 0.0000 0.0000 23.5411 7.6647 -47.9022 -7.6740 -15.8742 51.3798 -1.5157 -14.3953 -32.3062 -0.0504 -1.4493 3.9859 1.1207 4.9115 20.4204 -1.9355 6.6461 -1.2712 -4.8353 2.9589 -12.5133 -9.6926 -5.5269 -8.8948 11.1330 -7.5201 -16.5456 5.0010 -4.3753 -2.6755 0.0000 -0.0000 0.0000 -60.9396 13.5149 -32.0258 17.7752 -27.8684 -4.4437 -0.0000 -0.0000 8.4518 9.5159 -19.3008 -3.1713 -7.1250 0.0000 -0.0000 -12.1264 10.7640 9.8779 0.0000 -0.0000 0.0000 48.0396 11.2019 30.8238 -30.8655 41.6238 -11.9804 0.0000 0.0000 1.8585 -9.7582 -51.8173 7.6987 7.1250 -0.0000 -0.0000 63.6682 -74.4846 -48.5164
0.00 0.00 0.00 -179.3400 9.2204 201.2480 0.0000 0.0000 0.0000 -12.8329 -7.0423 -56.0218 12.6074 18.6358 67.9016 3.5702 -0.7727 -35.6662 8.1314 -16.2151 -53.0346 0.0000 0.0000 0.0000 22.3618 8.7660 -57.3292 -12.9815 -18.7755 69.0679 -2.4129 -11.8481 -35.4556 -0.1529 -2.5198 6.9445 0.4331 2.6017 20.9475 -1.4622 3.4642 -1.2714 -2.9992 1.5327 -13.1193 -7.1282 -5.4253 -8.8103 10.8239 -3.6892 -17.1383 4.4809 -0.8627 -3.2466 0.0000 0.0000 0.0000 -73.4265 -19.4545 -4.8686 14.2384 -23.0745 -2.9209 -0.0000 -0.0000 24.5686 13.6455 -28.8409 -6.6792 -7.1250 0.0000 -0.0000 -9.9400 0.8275 9.9469 0.0000 0.0000 0.0000 62.3802 -3.3133 35.3886 -27.7932 38.9252 -9.9935 0.0000 0.0000 2.1116 -11.2125 -52.9299 8.9879 7.1250 -0.0000 -0.0000 66.8877 -75.4076 -52.4212
0.00 0.00 0.00 -177.6340 31.0858 198.2620 0.0000 0.0000 0.0000 -15.7789 1.2490 -47.7879 13.6144 18.9929 71.0232 2.8346 7.2219 -34.9460 8.0799 -16.1777 -52.8501 0.0000 0.0000 0.0000 20.7513 18.1034 -47.1355 -11.7334 -18.2757 65.1414 -2.0364 -9.0411 -31.4457 -0.0128 -0.7295 2.0047 -1.8480 -1.6651 17.1145 -0.9708 -2.7309 -2.7920 0.7261 -1.1717 -12.7290 -12.4114 -7.2384 -5.8167 19.4514 -6.2157 -16.2360 8.1467 -2.5761 -2.5537 0.0000 -0.0000 0.0000 -80.3704 -41.7525 33.2678 16.6895 -26.4466 -3.9480 -0.0000 -0.0000 20.5421 14.3091 -35.3585 -8.3965 -7.1250 0.0000 -0.0000 -10.1900 -5.7282 11.3290 0.0000 -0.0000 0.0000 59.2853 -28.8582 53.6087 -50.0761 53.0261 -26.2349 0.0000 -0.0000 -3.1216 -3.5445 -52.6630 2.8195 7.1250 -0.0000 -0.0000 69.7885 -72.4926 -51.7775
0.00 0.00 0.00 -179.2510 52.6323 192.7760 0.0000 0.0000 0.0000 -22.5180 11.5667 -35.5393 10.3599 17.6073 60.6845 0.1206 15.7402 -23.4949 8.7285 -16.6298 -55.1465 0.0000 0.0000 0.0000 19.4902 20.7642 -33.1185 -7.7021 -15.8957 51.4825 -1.3015 -2.1014 -22.4021 -0.0217 0.9507 -2.6133 -4.6369 -3.2350 14.7625 -1.0971 -5.3696 -4.1990 2.7438 -2.1891 -12.6484 -15.2469 -10.4369 -3.7417 20.7574 -11.6281 -13.9702 8.7146 -5.5041 -1.1030 -0.0000 -0.0000 0.0000 -71.9020 -35.1524 32.7322 17.3728 -27.3466 -4.2572 -0.0000 -0.0000 24.1584 8.8962 -38.0580 -5.5116 -7.1250 0.0000 -0.0000 -13.3410 -7.5025 15.3653 -0.0000 -0.0000 0.0000 46.9401 -32.9995 67.6530 -82.0575 59.7603 -53.1272 0.0000 -0.0000 -5.5449 3.6938 -50.0471 -2.8332 7.1250 -0.0000 -0.0000 67.3032 -69.0121 -45.3760
0.00 0.00 0.00 -181.3850 69.1752 187.5130 0.0000 0.0000 0.0000 -25.1503 14.5659 -27.1584 8.1321 16.2155 53.0370 -1.1968 18.9288 -7.2987 7.7269 -15.9147 -51.5729 0.0000 0.0000 0.0000 19.2269 21.1717 -21.7612 -4.1682 -12.3810 37.0934 -0.1475 5.0551 -7.1960 -0.0259 -1.0383 2.8543 -4.1493 -4.0762 12.6000 -1.2968 -6.3276 -4.8466 2.3269 -2.7097 -12.0971 -16.7579 -13.1742 -1.1931 21.8241 -15.9282 -13.9559 9.0253 -7.8343 -0.5294 -0.0000 0.0000 0.0000 -69.2818 -24.6518 33.8671 16.7242 -26.4928 -3.9635 -0.0000 -0.0000 25.8261 6.9787 -37.9879 -4.3086 -7.1250 0.0000 -0.0000 -14.3273 -7.1708 16.4977 -0.0000 0.0000 0.0000 42.3742 -30.2286 72.9681 -97.8577 59.7654 -66.7996 0.0000 -0.0000 -6.9414 6.7573 -46.8972 -4.9444 7.1250 -0.0000 -0.0000 62.7808 -66.5735 -38.5196
0.00 0.00 0.00 -183.1220 82.1611 183.8340 0.0000 0.0000 0.0000 -25.1603 11.5246 -21.1730 6.7927 15.1548 48.0859 -0.3477 18.9269 10.0171 7.9150 -16.0563 -52.2558 0.0000 0.0000 0.0000 19.9603 22.3196 -12.7903 -1.7327 -8.2857 23.5852 -0.0842 4.8954 9.3225 -0.1082 -2.1213 5.8409 -4.5973 -5.1747 11.8296 -0.7004 -7.7870 -4.9931 3.4439 -3.3709 -11.5664 -14.2537 -15.1742 -1.0003 21.5475 -18.7587 -13.7164 8.2591 -9.3904 -0.2625 -0.0000 -0.0000 0.0000 -67.9128 -14.5162 35.4032 16.7252 -26.4940 -3.9640 -0.0000 -0.0000 27.3556 3.7929 -36.6447 -2.2659 -7.1250 0.0000 -0.0000 -15.8924 -5.4980 18.0198 -0.0000 -0.0000 0.0000 42.5115 -22.5186 75.8956 -100.4461 59.5836 -69.0339 0.0000 -0.0000 -6.5495 4.2208 -43.7619 -2.9222 7.1250 -0.0000 -0.0000 54.8499 -65.6240 -31.2874
0.00 0.00 0.00 -183.5160 132.1340 181.9040 0.0000 0.0000 0.0000 -21.8844 -4.1391 -14.4852 5.2458 13.6553 41.8740 2.0884 12.0252 26.0843 6.0815 -14.5068 -45.3078 0.0000 0.0000 0.0000 26.6560 20.4734 -1.8496 -0.3582 -3.8450 10.6410 0.2078 -32.2613 21.8356 -0.1403 2.4142 -6.6518 -2.0928 -4.9679 7.2682 3.8133 -6.5716 -5.6155 6.2234 -2.8988 -9.3625 -23.5886 -21.1035 6.8874 24.1983 -29.6705 -8.3396 8.6620 -15.0774 3.6252 -0.0000 0.0000 0.0000 -76.9611 14.1474 48.5918 19.3677 -29.8730 -5.2127 -0.0000 -0.0000 19.7481 -4.2190 -34.9420 2.4193 -7.1250 0.0000 -0.0000 -20.0139 -3.2284 22.4960 -0.0000 0.0000 0.0000 52.2835 2.2233 82.8475 -90.3104 59.9996 -60.2688 0.0000 -0.0000 -4.5907 4.6954 -45.1617 -3.3332 7.1250 -0.0000 -0.0000 57.7825 -66.2917 -34.2551
0.00 0.00 0.00 -183.2370 242.3220 192.8250 0.0000 0.0000 0.0000 -19.6081 -18.5885 -10.3094 1.9161 8.6890 24.8273 1.5613 5.5317 22.4748 5.6198 -14.0495 -43.4359 0.0000 0.0000 0.0000 22.2466 4.5028 -13.3711 -1.7695 -8.3684 23.8387 2.5836 -34.6945 10.5759 -2.7060 -10.2032 29.6373 -3.5151 0.0421 8.3765 2.5024 -0.2033 -5.4736 4.7265 0.2531 -10.5895 -22.0382 -19.2789 6.9938 25.1763 -27.5103 -6.4849 9.2103 -14.1615 3.6635 0.0000 -0.0000 0.0000 -75.9367 47.6474 59.6800 33.2460 -43.5183 -13.5912 -0.0000 0.0000 -0.4091 -24.6401 -28.8570 12.4823 -7.1250 0.0000 -0.0000 -30.5061 1.7851 35.0206 0.0000 -0.0000 0.0000 75.2888 7.3604 92.8731 -70.7552 58.5533 -43.4145 0.0000 -0.0000 -0.6693 9.9854 -46.4005 -7.2661 7.1250 -0.0000 -0.0000 64.3605 -65.3312 -38.1968
0.00 0.00 0.00 -343.3690 231.0290 354.4210 0.0000 0.0000 0.0000 -9.7166 -30.0673 -8.7653 2.0346 8.9378 25.6011 0.1591 6.9582 8.0364 5.6751 -14.1060 -43.6635 0.0000 0.0000 0.0000 26.0223 -7.3456 -21.1766 -3.6379 -11.6624 34.5478 0.8652 -26.5620 12.8997 -0.9962 -6.3519 17.8091 -3.4671 3.6128 10.4507 1.5351 4.4715 -4.7050 2.7057 2.4486 -11.3898 -15.2782 -12.7576 -1.5421 21.9649 -17.7612 -1.3901 8.1492 -8.9164 3.3127 0.0000 0.0000 0.0000 -60.7639 51.0456 61.0404 18.2913 -28.5286 -4.6875 -0.0000 -0.0000 11.4876 -25.0770 -30.6456 13.4157 -7.1250 0.0000 -0.0000 -30.4732 0.0914 35.9907 0.0000 0.0000 0.0000 67.5265 9.0521 63.8020 -41.1467 48.7348 -19.2968 0.0000 0.0000 1.5642 2.3436 -52.1718 -1.8515 7.1250 -0.0000 -0.0000 71.7236 -70.2643 -50.8787
0.00 0.00 0.00 -343.9870 218.4270 355.9810 0.0000 0.0000 0.0000 -7.6834 -20.9606 -16.4311 5.1115 13.5083 41.3022 0.2688 4.1443 -12.2132 7.0164 -15.3457 -48.9362 0.0000 0.0000 0.0000 28.6250 -8.5105 -22.6218 -4.1615 -12.3723 37.0620 0.4706 -15.8940 5.2577 -0.1575 2.5573 -7.0487 -2.9057 3.8351 12.4017 1.6487 4.8281 -4.5376 2.3293 2.5798 -12.3621 -12.6058 -10.2747 -1.6332 20.7973 -14.0847 -3.3166 7.8454 -7.2121 1.7867 -0.0000 0.0000 0.0000 -58.6522 47.1403 44.8910 13.9739 -22.6974 -2.8180 -0.0000 -0.0000 25.5212 -24.7585 -35.1221 14.8599 -7.1250 0.0000 -0.0000 -29.8264 -3.9582 37.1214 -0.0000 0.0000 0.0000 62.9325 11.1623 57.5166 -39.2983 47.6486 -17.9189 0.0000 -0.0000 -0.0789 -0.8773 -53.1717 0.7022 7.1250 -0.0000 -0.0000 72.6946 -71.6984 -53.5157
0.00 0.00 0.00 -344.6880 210.1410 360.1510 0.0000 0.0000 0.0000 -4.6171 -18.5701 -25.8278 8.3867 16.3964 53.9437 1.5052 2.9366 -24.3937 8.0918 -16.1863 -52.8926 0.0000 0.0000 0.0000 29.9870 -5.9975 -24.9507 -4.4612 -12.7501 38.4399 -0.1923 -8.2836 -15.0309 -0.8959 6.0326 -16.8791 -2.1732 3.7292 12.4315 1.1688 4.7543 -4.8379 1.4015 2.4632 -12.6018 -11.7452 -8.6126 -2.9308 20.7937 -11.6033 -4.7732 7.8944 -6.0276 1.1207 0.0000 -0.0000 0.0000 -53.3277 40.0392 29.9390 13.6364 -22.2125 -2.6891 -0.0000 -0.0000 41.1462 -22.3047 -37.5868 14.0482 -7.1250 0.0000 -0.0000 -28.5270 -5.9529 35.8951 0.0000 -0.0000 0.0000 58.5054 11.1002 46.7470 -37.9330 46.7965 -16.9168 0.0000 0.0000 1.5591 4.2902 -52.6643 -3.4134 7.1250 -0.0000 -0.0000 74.1220 -69.7556 -52.4668
0.00 0.00 0.00 -348.8450 200.9250 367.2050 0.0000 0.0000 0.0000 -6.9446 -17.9442 -36.3343 11.9542 18.3712 65.8437 3.5183 8.8858 -39.2670 7.7390 -15.9239 -51.6170 0.0000 0.0000 0.0000 24.6307 5.1653 -37.8445 -8.6161 -16.5542 54.7527 -1.5141 -10.0021 -28.7599 -1.2788 7.1664 -20.2094 -3.0285 2.6065 15.5140 0.1561 2.8913 -4.1845 1.1065 1.6005 -13.5988 -9.8992 -5.7789 -5.6270 18.8856 -7.2922 -10.1637 7.3126 -4.1215 -0.8569 -0.0000 0.0000 0.0000 -46.3298 20.6481 17.1903 19.3644 -29.8689 -5.2111 -0.0000 -0.0000 18.4409 -13.6368 -33.9383 7.7136 -7.1250 0.0000 -0.0000 -24.7898 -2.1073 28.4549 -0.0000 0.0000 0.0000 49.3800 10.5998 28.5873 -37.3908 46.4458 -16.5227 0.0000 -0.0000 -0.0727 -5.6243 -53.1303 4.5047 7.1250 -0.0000 -0.0000 70.1879 -73.3874 -53.1795
